<svg width="62" height="37" viewBox="0 0 62 37" fill="none" xmlns="http://www.w3.org/2000/svg">
<path d="M31.3333 9.6515e-06C43.1 9.6515e-06 52.7667 7.15712 54.4 16.4531H61.3333L49.6667 27.4219L38 16.4531H45.7333C44.9876 13.7688 43.1576 11.3718 40.5422 9.65352C37.9268 7.93523 34.6804 6.99719 31.3333 6.99259C26.5 6.99259 22.2333 8.93954 19.5333 11.8737L13.8333 6.52642C16.015 4.47404 18.7056 2.82972 21.7241 1.70401C24.7426 0.578289 28.0191 -0.00273112 31.3333 9.6515e-06ZM30 36.855C18.2667 36.855 8.56667 29.6979 6.93333 20.4019H0L11.6667 9.43313C15.5667 13.0802 19.4333 16.7548 23.3333 20.4019H15.6C16.3457 23.0862 18.1757 25.4832 20.7911 27.2015C23.4066 28.9198 26.6529 29.8578 30 29.8624C34.8333 29.8624 39.1 27.9155 41.8 24.9813L47.5 30.3286C45.3204 32.3831 42.6302 34.0288 39.6113 35.1547C36.5923 36.2806 33.3147 36.8604 30 36.855Z" fill="#EBFF00"/>
</svg>
