<svg width="36" height="41" viewBox="0 0 36 41" fill="none" xmlns="http://www.w3.org/2000/svg">
<path d="M18 0L34.434 3.403C34.8781 3.495 35.2753 3.72534 35.56 4.05603C35.8447 4.38671 35.9999 4.79796 36 5.22191V23.834C35.9999 25.6748 35.512 27.4871 34.5798 29.11C33.6475 30.7329 32.2997 32.1163 30.656 33.1373L18 41L5.344 33.1373C3.70055 32.1165 2.35292 30.7334 1.4207 29.1108C0.488471 27.4883 0.000472713 25.6764 0 23.8359V5.22191C7.80756e-05 4.79796 0.155276 4.38671 0.439979 4.05603C0.724682 3.72534 1.12187 3.495 1.566 3.403L18 0ZM18 11.1818C17.1195 11.1819 16.2636 11.4526 15.5651 11.9521C14.8665 12.4516 14.3644 13.1519 14.1365 13.9444C13.9086 14.7369 13.9677 15.5773 14.3046 16.3354C14.6415 17.0934 15.2375 17.7266 16 18.1369V26.0909H20L20.002 18.1369C20.7647 17.7266 21.3607 17.0931 21.6976 16.3349C22.0345 15.5767 22.0934 14.7361 21.8653 13.9435C21.6371 13.1509 21.1346 12.4506 20.4357 11.9512C19.7369 11.4519 18.8807 11.1814 18 11.1818Z" fill="#F3F58B"/>
</svg>
