<svg width="18" height="17" viewBox="0 0 18 17" fill="none" xmlns="http://www.w3.org/2000/svg">
<path d="M16.0612 14.875H14.2766V5.57812L8.92289 9.5625L3.56916 5.57812V14.875H1.78458V2.125H2.85532L8.92289 6.64062L14.9905 2.125H16.0612M16.0612 0H1.78458C0.794137 0 0 0.945625 0 2.125V14.875C0 15.4386 0.188017 15.9791 0.522691 16.3776C0.857364 16.7761 1.31128 17 1.78458 17H16.0612C16.5345 17 16.9884 16.7761 17.3231 16.3776C17.6578 15.9791 17.8458 15.4386 17.8458 14.875V2.125C17.8458 1.56141 17.6578 1.02091 17.3231 0.622398C16.9884 0.223883 16.5345 0 16.0612 0Z" fill="black"/>
</svg>
