<svg width="44" height="48" viewBox="0 0 44 48" fill="none" xmlns="http://www.w3.org/2000/svg">
<path d="M5.86667 0C4.31073 0 2.81852 0.594955 1.71831 1.65398C0.618093 2.71301 0 4.14936 0 5.64705V39.5293C0 41.027 0.618093 42.4634 1.71831 43.5224C2.81852 44.5814 4.31073 45.1764 5.86667 45.1764H14.6667V42.3529H5.86667C5.0887 42.3529 4.34259 42.0554 3.79249 41.5259C3.24238 40.9964 2.93333 40.2782 2.93333 39.5293V5.64705C2.93333 4.8982 3.24238 4.18003 3.79249 3.65052C4.34259 3.121 5.0887 2.82352 5.86667 2.82352H17.6V12.7059C17.6 13.8291 18.0636 14.9064 18.8887 15.7007C19.7139 16.4949 20.833 16.9411 22 16.9411H32.2667V20.1458C33.2009 19.915 34.1595 19.7871 35.1237 19.7647H35.2V15.2866C35.199 14.1637 34.7347 13.0871 33.9093 12.2936L22.4283 1.23953C21.6034 0.446065 20.4851 0.000239665 19.3189 0H5.86667ZM31.6595 14.1176H22C21.611 14.1176 21.238 13.9689 20.9629 13.7041C20.6879 13.4394 20.5333 13.0803 20.5333 12.7059V3.40799L31.6595 14.1176ZM18.0341 47.582C18.1674 47.716 18.3278 47.8222 18.5054 47.8941C18.683 47.9659 18.874 48.002 19.0667 47.9999H24.9333C25.2133 47.9997 25.4886 47.9318 25.7341 47.8023C25.9295 47.6889 26.0825 47.5189 26.1712 47.3166C26.264 47.1048 26.3252 46.8814 26.3531 46.6531C26.3838 46.4123 26.3994 46.17 26.4 45.9275V45.1764C27.104 45.1623 27.6525 45.1397 28.0515 45.1115C28.3806 45.1069 28.6971 44.9886 28.9432 44.7783C29.1586 44.5475 29.2804 44.2498 29.2864 43.9397C29.3157 43.5726 29.3333 43.0446 29.3333 42.3529C30.8 42.3529 31.1931 42.4093 31.5803 42.1552C31.7709 42.0308 31.9278 41.8643 32.0379 41.6696C32.1494 41.4629 32.2191 41.2378 32.2432 41.0061C32.3224 40.3595 32.2667 39.6959 32.2667 39.0437C32.7712 39.2216 33.2816 39.3458 33.8008 39.4192C34.3229 39.4926 34.848 39.5293 35.3848 39.5293C36.5264 39.5272 37.6557 39.3013 38.7036 38.8654C39.7516 38.4295 40.6963 37.7927 41.4803 36.9938C42.2723 36.1976 42.8912 35.2941 43.3341 34.2804C43.7771 33.2639 44 32.191 44 31.0588C44 29.8814 43.7712 28.7802 43.3136 27.7496C42.8721 26.7448 42.2338 25.8312 41.4333 25.0588C40.6306 24.2893 39.6815 23.6758 38.6379 23.2517C37.5512 22.8064 36.3811 22.5806 35.2 22.5882C34.0451 22.609 32.9038 22.8329 31.8325 23.2489C30.7879 23.6537 29.8369 24.2535 29.0341 25.0136C28.2287 25.7748 27.5764 26.6727 27.1099 27.6621C26.6341 28.6729 26.3919 29.7711 26.4 30.8809C26.4 31.5727 26.4851 32.3011 26.6523 33.0663L18.0341 41.359C17.895 41.4873 17.7846 41.6416 17.71 41.8126C17.6353 41.9835 17.5979 42.1674 17.6 42.3529V46.5882C17.6 46.9693 17.7467 47.3025 18.0341 47.582ZM39.6 28.9411C39.6 30.1044 38.6085 31.0588 37.4 31.0588C36.817 31.0573 36.2583 30.8337 35.8461 30.4369C35.4338 30.0401 35.2015 29.5023 35.2 28.9411C35.2 27.7778 36.1915 26.8235 37.4 26.8235C38.6085 26.8235 39.6 27.7778 39.6 28.9411Z" fill="#F3F58B"/>
</svg>
