<svg width="39" height="37" viewBox="0 0 39 37" fill="none" xmlns="http://www.w3.org/2000/svg">
<path d="M21.8036 10.4833C21.8036 9.9109 21.5639 9.36192 21.1373 8.95716C20.7106 8.55239 20.132 8.325 19.5286 8.325C18.9252 8.325 18.3466 8.55239 17.9199 8.95716C17.4933 9.36192 17.2536 9.9109 17.2536 10.4833V14.7778L13.3198 12.6232C13.0608 12.4736 12.773 12.3746 12.4731 12.332C12.1732 12.2895 11.8674 12.3042 11.5736 12.3754C11.2799 12.4466 11.0041 12.5727 10.7624 12.7465C10.5208 12.9202 10.3182 13.1381 10.1665 13.3871C10.0149 13.6362 9.91727 13.9116 9.87939 14.197C9.84152 14.4824 9.86415 14.7721 9.94598 15.0491C10.0278 15.326 10.1672 15.5847 10.3559 15.8099C10.5446 16.035 10.7788 16.2221 11.0448 16.3602L14.95 18.5L11.0448 20.6398C10.7788 20.7779 10.5446 20.965 10.3559 21.1901C10.1672 21.4153 10.0278 21.674 9.94598 21.9509C9.86415 22.2279 9.84152 22.5176 9.87939 22.803C9.91727 23.0884 10.0149 23.3638 10.1665 23.6128C10.3182 23.8619 10.5208 24.0798 10.7624 24.2535C11.0041 24.4273 11.2799 24.5534 11.5736 24.6246C11.8674 24.6958 12.1732 24.7105 12.4731 24.668C12.773 24.6254 13.0608 24.5264 13.3198 24.3768L17.2536 22.2222V26.5167C17.2536 27.0891 17.4933 27.6381 17.9199 28.0428C18.3466 28.4476 18.9252 28.675 19.5286 28.675C20.132 28.675 20.7106 28.4476 21.1373 28.0428C21.5639 27.6381 21.8036 27.0891 21.8036 26.5167V22.2543L25.6802 24.3781C26.2024 24.6598 26.8209 24.7341 27.4007 24.5847C27.9805 24.4354 28.4744 24.0746 28.7748 23.581C29.0752 23.0874 29.1576 22.5011 29.0041 21.9501C28.8505 21.3991 28.4735 20.9281 27.9552 20.6398L24.05 18.5L27.9552 16.3614C28.4735 16.0732 28.8505 15.6021 29.0041 15.0511C29.1576 14.5001 29.0752 13.9138 28.7748 13.4202C28.4744 12.9267 27.9805 12.5658 27.4007 12.4165C26.8209 12.2672 26.2024 12.3415 25.6802 12.6232L21.8036 14.7457V10.4833Z" fill="#F3F58B"/>
<path d="M6.5 0C5.64641 0 4.80117 0.159506 4.01256 0.46941C3.22394 0.779314 2.50739 1.23355 1.90381 1.80617C0.684819 2.96265 0 4.53117 0 6.16667V30.8333C0 32.4688 0.684819 34.0374 1.90381 35.1938C2.50739 35.7665 3.22394 36.2207 4.01256 36.5306C4.80117 36.8405 5.64641 37 6.5 37H32.5C34.2239 37 35.8772 36.3503 37.0962 35.1938C38.3152 34.0374 39 32.4688 39 30.8333V6.16667C39 5.35685 38.8319 4.55496 38.5052 3.80679C38.1786 3.05861 37.6998 2.3788 37.0962 1.80617C36.4926 1.23355 35.7761 0.779314 34.9874 0.46941C34.1988 0.159506 33.3536 0 32.5 0H6.5ZM2.6 6.16667C2.6 5.18537 3.01089 4.24426 3.74228 3.55037C4.47368 2.85649 5.46566 2.46667 6.5 2.46667H32.5C33.5343 2.46667 34.5263 2.85649 35.2577 3.55037C35.9891 4.24426 36.4 5.18537 36.4 6.16667V30.8333C36.4 31.8146 35.9891 32.7557 35.2577 33.4496C34.5263 34.1435 33.5343 34.5333 32.5 34.5333H6.5C5.46566 34.5333 4.47368 34.1435 3.74228 33.4496C3.01089 32.7557 2.6 31.8146 2.6 30.8333V6.16667Z" fill="#F3F58B"/>
</svg>
