<svg width="18" height="19" viewBox="0 0 18 19" fill="none" xmlns="http://www.w3.org/2000/svg">
<path d="M2.35075 17.4988V18.3321H3.52613V17.4988H2.35075ZM8.22763 17.4988V18.3321H9.403V17.4988H8.22763ZM3.52613 17.4988V16.6655H2.35075V17.4988H3.52613ZM8.22763 16.6655V17.4988H9.403V16.6655H8.22763ZM5.87688 13.3324C6.50034 13.3324 7.09826 13.6836 7.53911 14.3087C7.97996 14.9338 8.22763 15.7815 8.22763 16.6655H9.403C9.403 15.3395 9.0315 14.0679 8.37022 13.1302C7.70895 12.1926 6.81206 11.6659 5.87688 11.6659V13.3324ZM3.52613 16.6655C3.52613 15.7815 3.77379 14.9338 4.21465 14.3087C4.6555 13.6836 5.25342 13.3324 5.87688 13.3324V11.6659C4.94169 11.6659 4.04481 12.1926 3.38353 13.1302C2.72225 14.0679 2.35075 15.3395 2.35075 16.6655H3.52613ZM5.87688 3.33311C5.25342 3.33311 4.6555 3.68427 4.21465 4.30935C3.77379 4.93443 3.52613 5.78222 3.52613 6.66622H4.7015C4.7015 6.22422 4.82534 5.80032 5.04576 5.48779C5.26619 5.17525 5.56515 4.99966 5.87688 4.99966V3.33311ZM8.22763 6.66622C8.22763 5.78222 7.97996 4.93443 7.53911 4.30935C7.09826 3.68427 6.50034 3.33311 5.87688 3.33311V4.99966C6.18861 4.99966 6.48757 5.17525 6.70799 5.48779C6.92842 5.80032 7.05225 6.22422 7.05225 6.66622H8.22763ZM5.87688 9.99932C6.50034 9.99932 7.09826 9.64816 7.53911 9.02308C7.97996 8.398 8.22763 7.55021 8.22763 6.66622H7.05225C7.05225 7.10821 6.92842 7.53211 6.70799 7.84465C6.48757 8.15719 6.18861 8.33277 5.87688 8.33277V9.99932ZM5.87688 8.33277C5.56515 8.33277 5.26619 8.15719 5.04576 7.84465C4.82534 7.53211 4.7015 7.10821 4.7015 6.66622H3.52613C3.52613 7.55021 3.77379 8.398 4.21465 9.02308C4.6555 9.64816 5.25342 9.99932 5.87688 9.99932V8.33277ZM1.76306 1.66655H15.8676V0H1.76306V1.66655ZM16.4553 2.49983V15.8323H17.6306V2.49983H16.4553ZM15.8676 16.6655H1.76306V18.3321H15.8676V16.6655ZM1.17538 15.8323V2.49983H0V15.8323H1.17538ZM1.76306 16.6655C1.6072 16.6655 1.45772 16.5778 1.34751 16.4215C1.23729 16.2652 1.17538 16.0533 1.17538 15.8323H0C0 16.4953 0.185751 17.1311 0.516389 17.5999C0.847028 18.0687 1.29547 18.3321 1.76306 18.3321V16.6655ZM16.4553 15.8323C16.4553 16.0533 16.3933 16.2652 16.2831 16.4215C16.1729 16.5778 16.0234 16.6655 15.8676 16.6655V18.3321C16.3352 18.3321 16.7836 18.0687 17.1142 17.5999C17.4449 17.1311 17.6306 16.4953 17.6306 15.8323H16.4553ZM15.8676 1.66655C16.0234 1.66655 16.1729 1.75435 16.2831 1.91062C16.3933 2.06689 16.4553 2.27883 16.4553 2.49983H17.6306C17.6306 1.83683 17.4449 1.20099 17.1142 0.732184C16.7836 0.263374 16.3352 0 15.8676 0V1.66655ZM1.76306 0C1.29547 0 0.847028 0.263374 0.516389 0.732184C0.185751 1.20099 0 1.83683 0 2.49983H1.17538C1.17538 2.27883 1.23729 2.06689 1.34751 1.91062C1.45772 1.75435 1.6072 1.66655 1.76306 1.66655V0ZM10.5784 6.66622H14.1045V4.99966H10.5784V6.66622ZM10.5784 11.6659H14.1045V9.99932H10.5784V11.6659Z" fill="black"/>
</svg>
