<svg width="17" height="17" viewBox="0 0 17 17" fill="none" xmlns="http://www.w3.org/2000/svg">
<path d="M8.5 0C7.37283 0 6.29183 0.447766 5.4948 1.2448C4.69777 2.04183 4.25 3.12283 4.25 4.25C4.25 5.37717 4.69777 6.45817 5.4948 7.2552C6.29183 8.05223 7.37283 8.5 8.5 8.5C9.62717 8.5 10.7082 8.05223 11.5052 7.2552C12.3022 6.45817 12.75 5.37717 12.75 4.25C12.75 3.12283 12.3022 2.04183 11.5052 1.2448C10.7082 0.447766 9.62717 0 8.5 0ZM8.5 10.625C3.80375 10.625 0 12.5269 0 14.875V17H17V14.875C17 12.5269 13.1962 10.625 8.5 10.625Z" fill="black"/>
</svg>
