<svg width="18" height="21" viewBox="0 0 18 21" fill="none" xmlns="http://www.w3.org/2000/svg">
<path d="M8.81532 15.7132C9.39981 15.7132 9.96036 15.5063 10.3737 15.1379C10.787 14.7696 11.0191 14.27 11.0191 13.7491C11.0191 13.2282 10.787 12.7286 10.3737 12.3602C9.96036 11.9919 9.39981 11.7849 8.81532 11.7849C8.23082 11.7849 7.67027 11.9919 7.25697 12.3602C6.84368 12.7286 6.61149 13.2282 6.61149 13.7491C6.61149 14.27 6.84368 14.7696 7.25697 15.1379C7.67027 15.5063 8.23082 15.7132 8.81532 15.7132ZM15.4268 6.87454C16.0113 6.87454 16.5718 7.08148 16.9851 7.44983C17.3984 7.81818 17.6306 8.31777 17.6306 8.83869V18.6595C17.6306 19.1804 17.3984 19.68 16.9851 20.0483C16.5718 20.4167 16.0113 20.6236 15.4268 20.6236H2.20383C1.61934 20.6236 1.05878 20.4167 0.645486 20.0483C0.232188 19.68 0 19.1804 0 18.6595V8.83869C0 8.31777 0.232188 7.81818 0.645486 7.44983C1.05878 7.08148 1.61934 6.87454 2.20383 6.87454H3.30574V4.91038C3.30574 3.60807 3.88621 2.35909 4.91946 1.43822C5.95271 0.517343 7.35409 0 8.81532 0C9.53884 0 10.2553 0.127011 10.9237 0.373781C11.5922 0.620551 12.1996 0.982247 12.7112 1.43822C13.2228 1.89419 13.6286 2.43551 13.9055 3.03126C14.1824 3.62702 14.3249 4.26554 14.3249 4.91038V6.87454H15.4268ZM8.81532 1.96415C7.93858 1.96415 7.09775 2.27456 6.4778 2.82708C5.85785 3.37961 5.50957 4.129 5.50957 4.91038V6.87454H12.1211V4.91038C12.1211 4.129 11.7728 3.37961 11.1528 2.82708C10.5329 2.27456 9.69205 1.96415 8.81532 1.96415Z" fill="black"/>
</svg>
