<svg width="106" height="95" viewBox="0 0 106 95" fill="none" xmlns="http://www.w3.org/2000/svg">
<path d="M14.1333 90.6818V95H21.2V90.6818H14.1333ZM49.4667 90.6818V95H56.5333V90.6818H49.4667ZM21.2 90.6818V86.3636H14.1333V90.6818H21.2ZM49.4667 86.3636V90.6818H56.5333V86.3636H49.4667ZM35.3333 69.0909C39.0817 69.0909 42.6766 70.9107 45.3271 74.15C47.9776 77.3892 49.4667 81.7826 49.4667 86.3636H56.5333C56.5333 79.4921 54.2998 72.902 50.324 68.0431C46.3482 63.1842 40.9559 60.4545 35.3333 60.4545V69.0909ZM21.2 86.3636C21.2 81.7826 22.689 77.3892 25.3396 74.15C27.9901 70.9107 31.5849 69.0909 35.3333 69.0909V60.4545C29.7107 60.4545 24.3184 63.1842 20.3427 68.0431C16.3669 72.902 14.1333 79.4921 14.1333 86.3636H21.2ZM35.3333 17.2727C31.5849 17.2727 27.9901 19.0925 25.3396 22.3318C22.689 25.5711 21.2 29.9644 21.2 34.5455H28.2667C28.2667 32.2549 29.0112 30.0583 30.3364 28.4386C31.6617 26.819 33.4591 25.9091 35.3333 25.9091V17.2727ZM49.4667 34.5455C49.4667 29.9644 47.9776 25.5711 45.3271 22.3318C42.6766 19.0925 39.0817 17.2727 35.3333 17.2727V25.9091C37.2075 25.9091 39.005 26.819 40.3302 28.4386C41.6555 30.0583 42.4 32.2549 42.4 34.5455H49.4667ZM35.3333 51.8182C39.0817 51.8182 42.6766 49.9984 45.3271 46.7591C47.9776 43.5199 49.4667 39.1265 49.4667 34.5455H42.4C42.4 36.836 41.6555 39.0327 40.3302 40.6523C39.005 42.2719 37.2075 43.1818 35.3333 43.1818V51.8182ZM35.3333 43.1818C33.4591 43.1818 31.6617 42.2719 30.3364 40.6523C29.0112 39.0327 28.2667 36.836 28.2667 34.5455H21.2C21.2 39.1265 22.689 43.5199 25.3396 46.7591C27.9901 49.9984 31.5849 51.8182 35.3333 51.8182V43.1818ZM10.6 8.63636H95.4V0H10.6V8.63636ZM98.9333 12.9545V82.0455H106V12.9545H98.9333ZM95.4 86.3636H10.6V95H95.4V86.3636ZM7.06667 82.0455V12.9545H0V82.0455H7.06667ZM10.6 86.3636C9.6629 86.3636 8.76418 85.9087 8.10156 85.0989C7.43893 84.2891 7.06667 83.1907 7.06667 82.0455H0C0 85.4812 1.11678 88.7763 3.10467 91.2057C5.09255 93.6352 7.78871 95 10.6 95V86.3636ZM98.9333 82.0455C98.9333 83.1907 98.5611 84.2891 97.8984 85.0989C97.2358 85.9087 96.3371 86.3636 95.4 86.3636V95C98.2113 95 100.907 93.6352 102.895 91.2057C104.883 88.7763 106 85.4812 106 82.0455H98.9333ZM95.4 8.63636C96.3371 8.63636 97.2358 9.09131 97.8984 9.90113C98.5611 10.7109 98.9333 11.8093 98.9333 12.9545H106C106 9.51879 104.883 6.22375 102.895 3.7943C100.907 1.36485 98.2113 0 95.4 0V8.63636ZM10.6 0C7.78871 0 5.09255 1.36485 3.10467 3.7943C1.11678 6.22375 0 9.51879 0 12.9545H7.06667C7.06667 11.8093 7.43893 10.7109 8.10156 9.90113C8.76418 9.09131 9.6629 8.63636 10.6 8.63636V0ZM63.6 34.5455H84.8V25.9091H63.6V34.5455ZM63.6 60.4545H84.8V51.8182H63.6V60.4545Z" fill="#FAFF03"/>
</svg>
