<svg width="101" height="118" viewBox="0 0 101 118" fill="none" xmlns="http://www.w3.org/2000/svg">
<path d="M50.5 0L0 21.4545V53.6364C0 83.4045 21.5467 111.242 50.5 118C79.4533 111.242 101 83.4045 101 53.6364V21.4545L50.5 0ZM50.5 32.1818C58.3556 32.1818 66.2111 38.0818 66.2111 45.5909V53.6364C69.5778 53.6364 72.9444 56.8545 72.9444 60.6091V79.3818C72.9444 82.6 69.5778 85.8182 65.65 85.8182H34.7889C31.4222 85.8182 28.0556 82.6 28.0556 78.8455V60.0727C28.0556 56.8545 31.4222 53.6364 34.7889 53.6364V45.5909C34.7889 38.0818 42.6444 32.1818 50.5 32.1818ZM50.5 38.6182C46.0111 38.6182 42.0833 41.3 42.0833 45.5909V53.6364H58.9167V45.5909C58.9167 41.3 54.9889 38.6182 50.5 38.6182Z" fill="#FAFF03"/>
</svg>
