<svg width="107" height="96" viewBox="0 0 107 96" fill="none" xmlns="http://www.w3.org/2000/svg">
<path d="M53.7078 47.7413C59.3829 47.7413 64.9306 46.3413 69.6493 43.7183C74.368 41.0954 78.0457 37.3673 80.2175 33.0055C82.3893 28.6437 82.9575 23.8442 81.8504 19.2137C80.7432 14.5833 78.0104 10.3299 73.9974 6.99155C69.9845 3.65319 64.8718 1.37973 59.3057 0.458678C53.7396 -0.462375 47.9702 0.0103427 42.7271 1.81705C37.4839 3.62376 33.0026 6.68332 29.8496 10.6088C26.6967 14.5343 25.0138 19.1495 25.0138 23.8706C25.0138 30.2015 28.0369 36.2731 33.4181 40.7497C38.7993 45.2263 46.0977 47.7413 53.7078 47.7413ZM53.7078 54.5614C35.9227 54.5614 0.419037 63.7005 0.419037 81.8421V95.4825H106.996V81.8421C106.996 63.7005 71.4929 54.5614 53.7078 54.5614Z" fill="#FAFF03"/>
</svg>
